<svg width="512" height="512" xmlns="http://www.w3.org/2000/svg" clip-rule="evenodd" fill-rule="evenodd" image-rendering="optimizeQuality" text-rendering="geometricPrecision" shape-rendering="geometricPrecision">

 <g>
  <title>Layer 1</title>
  <path fill="#8e84ff" id="svg_1" d="m256,0c141.385,0 256,114.615 256,256s-114.615,256 -256,256s-256,-114.615 -256,-256s114.615,-256 256,-256zm104.932,160.621a250.428,250.428 0 0 0 -62.383,-19.182a173.883,173.883 0 0 0 -7.966,16.243a232.557,232.557 0 0 0 -34.619,-2.603c-11.569,0 -23.195,0.879 -34.622,2.58c-2.334,-5.509 -5.044,-10.971 -7.986,-16.223a252.58,252.58 0 0 0 -62.397,19.222c-39.483,58.408 -50.183,115.357 -44.833,171.497a251.49,251.49 0 0 0 76.502,38.398c6.169,-8.327 11.695,-17.192 16.386,-26.417a161.682,161.682 0 0 1 -25.813,-12.319c2.164,-1.569 4.281,-3.186 6.325,-4.756c23.912,11.231 50.039,17.088 76.473,17.088c26.436,0 52.562,-5.857 76.475,-17.089c2.069,1.688 4.186,3.305 6.325,4.755a162.693,162.693 0 0 1 -25.86,12.352a183.969,183.969 0 0 0 16.387,26.397a250.498,250.498 0 0 0 76.553,-38.392l-0.006,0.007c6.277,-65.104 -10.725,-121.53 -44.941,-171.558zm-155.152,137.009c-14.908,0 -27.226,-13.53 -27.226,-30.175c0,-16.645 11.889,-30.293 27.178,-30.293c15.29,0 27.511,13.648 27.25,30.293c-0.262,16.645 -12.008,30.175 -27.202,30.175zm100.439,0c-14.933,0 -27.202,-13.53 -27.202,-30.175c0,-16.645 11.889,-30.293 27.202,-30.293c15.313,0 27.44,13.648 27.178,30.293c-0.261,16.645 -11.984,30.175 -27.178,30.175z"/>
 </g>
</svg>