<svg width="121.85" height="122.88" xmlns="http://www.w3.org/2000/svg" data-name="Layer 1">

 <title>customer-service</title>
 <g>
  <title>Layer 1</title>
  <path id="svg_1" fill-rule="evenodd" fill="#8e84ff" d="m42.18,72.75a47.21,47.21 0 0 1 -3.9,-7.75c-8.39,-4.72 -9.73,-25.71 -4.56,-24.12c0,-0.79 -0.14,-3 -0.14,-4.52c0,-34.07 54.74,-34.09 54.74,0c0,1.56 -0.16,3.73 -0.14,4.52c5.16,-1.62 3.82,19.37 -4.56,24.12c-2.13,5.9 -5.93,9.86 -5.62,12.45c0,8.89 -9.77,12.11 -17,12.19c-0.66,0 -1.33,0 -2,-0.1a17.8,17.8 0 0 0 4.52,-1.9l0,0c3.11,-1.9 5.21,-4.71 5.21,-8.08s-2.09,-6.2 -5.2,-8.09l0,0a18.68,18.68 0 0 0 -9.4,-2.57a19.54,19.54 0 0 0 -7.51,1.35a12.78,12.78 0 0 0 -4,2.58l-0.37,0l-0.07,-0.08zm58.25,-41.14l-0.37,0c-3.43,-14.53 -12.25,-24.61 -22.76,-28.78a44.05,44.05 0 0 0 -19.3,-2.68a46.75,46.75 0 0 0 -18.44,5.4a34.24,34.24 0 0 0 -17.41,26.06l-0.69,0c-3.3,0 -6.64,2.71 -6.64,6l0,21.67c0,3.3 3.34,6 6.64,6l1.95,0c2.13,8.65 10.76,16.57 19.59,16.57l1.73,0c1.51,2.22 4.44,3.79 9.32,3.79s10.08,-2.75 10.08,-6.13s-5.13,-6.12 -10.08,-6.12s-7.95,1.61 -9.41,3.93l-1.64,0c-7.54,0 -15,-8 -15.53,-15.22l0,-30.1a29.1,29.1 0 0 1 14.66,-21.8a41.46,41.46 0 0 1 16.27,-4.73a38.8,38.8 0 0 1 16.93,2.32c8.71,3.44 16.06,12 19.23,23.82l-0.13,0l0,33.67l6,0c3.3,0 6.64,-2.7 6.64,-6l0,-21.66c0,-3.31 -3.34,-6 -6.64,-6l0,-0.01zm-35.84,72.83l1.86,0a3,3 0 0 0 3,-3l0,-5a3,3 0 0 0 -3,-3l-11,0a3.05,3.05 0 0 0 -3,3l0,5a3.06,3.06 0 0 0 3,3l1.85,0l-3.64,18.43l14.41,0l-3.48,-18.44l0,0.01zm-64.59,18.44c1.43,-18.54 -2.21,-17.79 13.32,-23.6a128.67,128.67 0 0 0 22.78,-11l13.27,34.63l-49.37,-0.03zm86.4,-36.21a95.25,95.25 0 0 0 21.07,10c14.5,4.82 14.5,5.5 14.36,26.17l-49.18,0l13.75,-36.17z" class="cls-1"/>
 </g>
</svg>